<svg xmlns="http://www.w3.org/2000/svg" width="57" height="35" viewBox="0 0 57 35"><defs><style>.a{fill:#3d3737;}.b{fill:#fff;}</style></defs><g transform="translate(16 5)"><path class="a" d="M6,0H57a0,0,0,0,1,0,0V35a0,0,0,0,1,0,0H6a6,6,0,0,1-6-6V6A6,6,0,0,1,6,0Z" transform="translate(-16 -5)"/><path class="b" d="M142.521,109.31a10.688,10.688,0,0,0-.263-2.549H130.55v4.628h6.872a6.094,6.094,0,0,1-2.549,4.046l-.023.155,3.7,2.868.256.026a12.192,12.192,0,0,0,3.713-9.172" transform="translate(-118.08 -96.563)"/><path class="b" d="M25.065,166.374a11.886,11.886,0,0,0,8.258-3.021L29.388,160.3a7.381,7.381,0,0,1-4.323,1.247,7.507,7.507,0,0,1-7.094-5.182l-.146.012-3.849,2.979-.05.14a12.461,12.461,0,0,0,11.14,6.872" transform="translate(-12.595 -141.434)"/><path class="b" d="M5.376,79.437A7.677,7.677,0,0,1,4.96,76.97a8.067,8.067,0,0,1,.4-2.466l-.007-.165-3.9-3.027-.128.061a12.444,12.444,0,0,0,0,11.2l4.046-3.131" transform="translate(0 -64.5)"/><path class="b" d="M25.065,4.822a6.911,6.911,0,0,1,4.822,1.857l3.519-3.436A11.981,11.981,0,0,0,25.065,0a12.461,12.461,0,0,0-11.14,6.872L17.957,10a7.538,7.538,0,0,1,7.108-5.182" transform="translate(-12.595)"/></g></svg>